<?xml version="1.0" encoding="UTF-8" standalone="no"?>
<!DOCTYPE svg PUBLIC "-//W3C//DTD SVG 1.1//EN" "http://www.w3.org/Graphics/SVG/1.1/DTD/svg11.dtd">
<svg width="100%" height="100%" viewBox="0 0 1448 1584" version="1.1" xmlns="http://www.w3.org/2000/svg" xmlns:xlink="http://www.w3.org/1999/xlink" xml:space="preserve" xmlns:serif="http://www.serif.com/" style="fill-rule:evenodd;clip-rule:evenodd;stroke-linejoin:round;stroke-miterlimit:2;">
    <g transform="matrix(1,0,0,1,1,0)">
        <g transform="matrix(1,0,0,1,0.133328,0.423282)">
            <path d="M723.1,227.136C1087.28,245.468 1271.4,413.64 1312.98,734.5L1320.23,1063.75C1316.97,1138.99 1297.26,1206.06 1262.48,1265.67C1216.07,1351.33 1161.02,1427.24 1095.48,1491.33L1033.48,1558.67C1019.94,1584.07 882.847,1582.07 754.817,1583L690.667,1583C562.637,1582.07 425.542,1584.07 412,1558.67L350,1491.33C284.466,1427.24 229.411,1351.33 183,1265.67C148.225,1206.06 128.509,1138.99 125.25,1063.75L132.5,734.5C174.079,413.64 358.202,245.468 722.383,227.136L723.1,227.136ZM1103.38,1153.9L722.742,1343.79L342.1,1153.9C317.542,1273.58 318.071,1341.18 355.733,1384.8C413.118,1466.72 439.591,1497.04 536.767,1500.1L715.983,1504.86L728.483,1504.88L908.717,1500.1C1005.89,1497.04 1032.37,1466.72 1089.75,1384.8C1127.41,1341.18 1127.94,1273.58 1103.38,1153.9ZM1166.98,605.833L722.742,813.732L278.5,605.833L278.5,997.5L722.742,1193.5L1166.98,997.5L1166.98,605.833ZM96.506,1064.07L-0.267,1064.07L-0.267,734.033L102.702,733.989L96.506,967.157L96.506,1064.07ZM1343.03,733.989L1446,734.033L1446,1064.07L1349.23,1064.07L1349.23,967.157L1343.03,733.989ZM185.483,477.153C232.45,378.815 305.804,307.415 430.483,259.82L157.983,0.153L185.483,477.153ZM1260,477.153C1213.03,378.815 1139.68,307.415 1015,259.82L1287.5,0.153L1260,477.153Z" style="fill:white;"/>
        </g>
    </g>
</svg>
